Coordinates
version=1
nRows=10
nColumns=33
inDegrees=yes

Units are S.I. units (second, meters, Newtons, ...)
Angles are in degrees.

endheader
time	ground_thorax_rot_x	ground_thorax_rot_y	ground_thorax_rot_z	ground_thorax_tx	ground_thorax_ty	ground_thorax_tz	clav_prot_r	clav_elev_r	scapula_abduction_r	scapula_elevation_r	scapula_upward_rot_r	scapula_winging_r	shoulder_elv_r	plane_of_elev_r	axial_rot_r	elbow_flexion_r	pro_sup_r	wrist_flex_r	wrist_dev_r	clav_prot_l	clav_elev_l	scapula_abduction_l	scapula_elevation_l	scapula_upward_rot_l	scapula_winging_l	shoulder_elv_l	plane_of_elev_l	axial_rot_l	elbow_flexion_l	pro_sup_l	wrist_flex_l	wrist_dev_l
      4.23000000	    -38.28346259	     -8.59621929	     17.38874254	   -247.75727710	    834.48740331	      7.66764626	      9.06027578	    -45.00000000	     40.62189089	    -45.00000000	    -45.00000000	  -4059.27128431	  -3703.52201493	    144.66993893	    179.99999979	   1449.22028772	     59.35622308	     26.32518707	      8.47018029	     14.53660285	     37.71868595	    -36.90082313	    -45.00000000	    -45.00000000	    804.59170566	  -1171.18536860	    134.21729843	   -179.99999979	   -347.48547526	     42.82162832	      1.44631290	    -20.33759588
      4.24000000	    -38.38288150	     -8.40765818	     17.10100639	   -250.07323706	    834.65766781	      7.83814827	      9.09576540	    -45.00000000	     40.60671515	    -45.00000000	    -45.00000000	  -4059.35292389	  -3703.62083770	    144.78199276	    179.99999979	   1449.17145906	     60.27703912	     26.40651333	      8.21615840	     14.53559843	     37.65226058	    -36.74049145	    -45.00000000	    -45.00000000	    804.55719891	  -1171.20067056	    134.25387789	   -179.99999979	   -347.37149058	     44.67995468	      1.17823968	    -20.15518398
      4.25000000	    -38.50061570	     -8.21649402	     16.82375260	   -252.33904559	    834.75948274	      8.00767882	      9.06257690	    -45.00000000	     40.53067775	    -45.00000000	    -45.00000000	  -4059.36304842	  -3703.71189943	    144.91395707	    179.99999979	   1449.03604506	     61.19807433	     26.41207804	      7.95107924	     14.42103964	     37.74261117	    -36.61225835	    -45.00000000	    -45.00000000	    804.51768818	  -1171.19789979	    134.32524033	   -179.99999979	   -347.24177383	     46.42574828	      0.99843522	    -20.05905681
      4.26000000	    -38.60317926	     -8.05747201	     16.57428573	   -254.55128399	    834.79202893	      8.17248506	      9.05826902	    -45.00000000	     40.46286061	    -45.00000000	    -45.00000000	  -4059.41607022	  -3703.82943323	    145.06608946	    179.99999979	   1448.98470651	     62.11997085	     26.46168971	      7.69662794	     14.35908691	     37.77239280	    -36.46910265	    -45.00000000	    -45.00000000	    804.46886938	  -1171.22286376	    134.39450020	   -179.99999979	   -347.12951236	     48.08639586	      0.81804677	    -19.93675181
      4.27000000	    -38.69653392	     -7.83400160	     16.29766194	   -256.71515767	    834.75502873	      8.33037770	      9.02426976	    -45.00000000	     40.41057654	    -45.00000000	    -45.00000000	  -4059.46894798	  -3703.93233713	    145.26772064	    179.99999979	   1448.99938723	     63.00431191	     26.50613047	      7.42844239	     14.20078055	     37.91813163	    -36.39716134	    -45.00000000	    -45.00000000	    804.34688893	  -1171.22435190	    134.60025778	   -179.99999979	   -346.98228538	     49.61446600	      0.67602979	    -19.86653740
      4.28000000	    -38.74991054	     -7.75396435	     16.06822283	   -258.81640702	    834.64904288	      8.47819469	      9.07616891	    -45.00000000	     40.35490164	    -45.00000000	    -45.00000000	  -4059.54675943	  -3704.05370226	    145.32936119	    179.99999979	   1448.79081179	     63.94723524	     26.63465572	      7.27885764	     14.28099008	     37.72064850	    -36.15497982	    -45.00000000	    -45.00000000	    804.32704015	  -1171.26956566	    134.49070110	   -179.99999979	   -346.95121351	     51.10707471	      0.47588108	    -19.62626840
      4.29000000	    -38.81306249	     -7.64203511	     15.83432253	   -260.85895057	    834.47540511	      8.61441801	      9.09877447	    -45.00000000	     40.35292916	    -45.00000000	    -45.00000000	  -4059.59284658	  -3704.18205230	    145.48992174	    179.99999979	   1448.67649804	     64.84936521	     26.70049736	      7.08831746	     14.22369634	     37.71139139	    -35.99068881	    -45.00000000	    -45.00000000	    804.26932583	  -1171.33769951	    134.52294679	   -179.99999979	   -346.87220112	     52.56586884	      0.35162879	    -19.50639995
      4.30000000	    -38.91026945	     -7.46382243	     15.55778370	   -262.83828063	    834.23646992	      8.73685681	      9.07055942	    -45.00000000	     40.27720995	    -45.00000000	    -45.00000000	  -4059.64784645	  -3704.36137400	    145.67421808	    179.99999979	   1448.71385669	     65.63445184	     26.80179601	      6.89374976	     14.09126480	     37.81551744	    -35.86164126	    -45.00000000	    -45.00000000	    804.10846064	  -1171.33446898	    134.67552145	   -179.99999979	   -346.74937904	     53.86983336	      0.25324659	    -19.44581047
      4.31000000	    -38.96509979	     -7.42483775	     15.35700150	   -264.75176732	    833.93555305	      8.84331758	      9.10585742	    -45.00000000	     40.22787686	    -45.00000000	    -45.00000000	  -4059.68699525	  -3704.51303636	    145.77505022	    179.99999979	   1448.49517530	     66.40607368	     26.91182402	      6.80221441	     14.10794220	     37.69848840	    -35.65264747	    -45.00000000	    -45.00000000	    804.08707014	  -1171.38269650	    134.65733775	   -179.99999979	   -346.72086501	     55.09177071	      0.13498859	    -19.27421762
      4.32000000	    -38.99815221	     -7.38756110	     15.19462931	   -266.59347320	    833.57707657	      8.93143724	      9.15568471	    -45.00000000	     40.20541952	    -45.00000000	    -45.00000000	  -4059.73733415	  -3704.66345999	    145.94027525	    179.99999979	   1448.32485824	     67.11357622	     26.98309591	      6.70024795	     14.08781177	     37.66593339	    -35.48081756	    -45.00000000	    -45.00000000	    804.03458754	  -1171.48513462	    134.67818818	   -179.99999979	   -346.67243766	     56.27524818	      0.05503997	    -19.17035342
